<svg width="290" height="211" viewBox="0 0 290 211" fill="none" xmlns="http://www.w3.org/2000/svg">
<rect x="0.8125" y="6.04297" width="8" height="34" transform="rotate(-49.0553 0.8125 6.04297)" fill="#00FFC2"/>
<rect x="58.666" y="15.3984" width="8" height="34" transform="rotate(-49.0553 58.666 15.3984)" fill="#00FFC2"/>
<rect x="34.0488" y="34.877" width="8" height="34" transform="rotate(-49.0553 34.0488 34.877)" fill="#00FFC2"/>
<rect x="91.9023" y="44.2324" width="8" height="34" transform="rotate(-49.0553 91.9023 44.2324)" fill="#00FFC2"/>
<rect x="67.2832" y="63.7129" width="8" height="34" transform="rotate(-49.0553 67.2832 63.7129)" fill="#00FFC2"/>
<rect x="125.137" y="73.0684" width="8" height="34" transform="rotate(-49.0553 125.137 73.0684)" fill="#00FFC2"/>
<rect x="100.518" y="92.5469" width="8" height="34" transform="rotate(-49.0553 100.518 92.5469)" fill="#00FFC2"/>
<rect x="158.371" y="101.902" width="8" height="34" transform="rotate(-49.0553 158.371 101.902)" fill="#00FFC2"/>
<rect x="133.754" y="121.383" width="8" height="34" transform="rotate(-49.0553 133.754 121.383)" fill="#00FFC2"/>
<rect x="191.609" y="130.738" width="8" height="34" transform="rotate(-49.0553 191.609 130.738)" fill="#00FFC2"/>
<rect x="166.988" y="150.217" width="8" height="34" transform="rotate(-49.0553 166.988 150.217)" fill="#00FFC2"/>
<rect x="224.844" y="159.572" width="8" height="34" transform="rotate(-49.0553 224.844 159.572)" fill="#00FFC2"/>
<rect x="200.223" y="179.051" width="8" height="34" transform="rotate(-49.0553 200.223 179.051)" fill="#00FFC2"/>
<rect x="258.078" y="188.406" width="8" height="34" transform="rotate(-49.0553 258.078 188.406)" fill="#00FFC2"/>
</svg>
