<svg width="589" height="260" viewBox="0 0 589 260" fill="none" xmlns="http://www.w3.org/2000/svg">
<path d="M4.3656 62.4514L-27.152 94.1459L-40.9644 80.1932L-23.7493 62.8031L-23.4011 62.4514L-23.7493 62.0996L-40.9644 44.7095L-27.152 30.7568L4.3656 62.4514Z" stroke="#001A70"/>
<path d="M91.7406 157.026L60.223 188.72L46.4106 174.767L63.6257 157.377L63.9739 157.026L63.6257 156.674L46.4106 139.284L60.223 125.331L91.7406 157.026Z" stroke="#001A70"/>
<path d="M179.118 251.606L147.6 283.3L133.788 269.347L151.003 251.957L151.351 251.606L151.003 251.254L133.788 233.864L147.6 219.911L179.118 251.606Z" stroke="#001A70"/>
<path d="M351.407 62.4514L319.889 94.1459L306.077 80.1932L323.292 62.8031L323.64 62.4514L323.292 62.0996L306.077 44.7095L319.889 30.7568L351.407 62.4514Z" stroke="#001A70"/>
<path d="M438.784 157.026L407.266 188.72L393.454 174.767L410.669 157.377L411.017 157.026L410.669 156.674L393.454 139.284L407.266 125.331L438.784 157.026Z" stroke="#001A70"/>
<path d="M526.159 251.606L494.641 283.3L480.829 269.347L498.044 251.957L498.392 251.606L498.044 251.254L480.829 233.864L494.641 219.911L526.159 251.606Z" stroke="#001A70"/>
<path d="M5.59607 251.606L-25.9216 283.3L-39.7339 269.347L-22.5189 251.957L-22.1706 251.606L-22.5189 251.254L-39.7339 233.864L-25.9216 219.911L5.59607 251.606Z" stroke="#001A70"/>
<path d="M177.883 62.4514L146.366 94.1459L132.553 80.1932L149.768 62.8031L150.116 62.4514L149.768 62.0996L132.553 44.7095L146.366 30.7568L177.883 62.4514Z" stroke="#001A70"/>
<path d="M265.262 157.026L233.744 188.72L219.932 174.767L237.147 157.377L237.495 157.026L237.147 156.674L219.932 139.284L233.744 125.331L265.262 157.026Z" stroke="#001A70"/>
<path d="M352.641 251.606L321.123 283.3L307.311 269.347L324.526 251.957L324.874 251.606L324.526 251.254L307.311 233.864L321.123 219.911L352.641 251.606Z" stroke="#001A70"/>
<path d="M524.924 62.4514L493.407 94.1459L479.594 80.1932L496.809 62.8031L497.157 62.4514L496.809 62.0996L479.594 44.7095L493.407 30.7568L524.924 62.4514Z" stroke="#001A70"/>
<path d="M63.4402 62.4471L2.45576 123.907L-13.8227 107.463L30.6786 62.8L31.0302 62.4471L30.6786 62.0942L-13.8227 17.4315L2.45576 0.987631L63.4402 62.4471Z" stroke="#001A70"/>
<path d="M150.819 157.025L89.8347 218.485L73.5563 202.041L118.057 157.378L118.409 157.025L118.057 156.672L73.5563 112.01L89.8347 95.5658L150.819 157.025Z" stroke="#001A70"/>
<path d="M238.194 251.601L177.21 313.061L160.931 296.617L205.432 251.954L205.784 251.601L205.432 251.248L160.931 206.586L177.21 190.142L238.194 251.601Z" stroke="#001A70"/>
<path d="M410.481 62.4471L349.497 123.907L333.218 107.463L377.72 62.8L378.071 62.4471L377.72 62.0942L333.218 17.4315L349.497 0.987631L410.481 62.4471Z" stroke="#001A70"/>
<path d="M497.858 157.025L436.874 218.485L420.595 202.041L465.097 157.378L465.448 157.025L465.097 156.672L420.595 112.01L436.874 95.5658L497.858 157.025Z" stroke="#001A70"/>
<path d="M585.237 251.601L524.253 313.061L507.974 296.617L552.475 251.954L552.827 251.601L552.475 251.248L507.974 206.586L524.253 190.142L585.237 251.601Z" stroke="#001A70"/>
<path d="M64.6746 251.601L3.69014 313.061L-12.5883 296.617L31.9129 251.954L32.2646 251.601L31.9129 251.248L-12.5883 206.586L3.69014 190.142L64.6746 251.601Z" stroke="#001A70"/>
<path d="M236.96 62.4471L175.975 123.907L159.697 107.463L204.198 62.8L204.55 62.4471L204.198 62.0942L159.697 17.4315L175.975 0.987631L236.96 62.4471Z" stroke="#001A70"/>
<path d="M324.337 157.025L263.352 218.485L247.074 202.041L291.575 157.378L291.927 157.025L291.575 156.672L247.074 112.01L263.352 95.5658L324.337 157.025Z" stroke="#001A70"/>
<path d="M411.716 251.601L350.731 313.061L334.453 296.617L378.954 251.954L379.306 251.601L378.954 251.248L334.453 206.586L350.731 190.142L411.716 251.601Z" stroke="#001A70"/>
<path d="M584.003 62.4471L523.018 123.907L506.74 107.463L551.241 62.8L551.593 62.4471L551.241 62.0942L506.74 17.4315L523.018 0.987631L584.003 62.4471Z" stroke="#001A70"/>
</svg>
